<?xml version="1.0" encoding="utf-8"?>
<!-- Generator: Adobe Illustrator 26.5.0, SVG Export Plug-In . SVG Version: 6.00 Build 0)  -->
<svg version="1.1" id="Calque_1" xmlns="http://www.w3.org/2000/svg" xmlns:xlink="http://www.w3.org/1999/xlink" x="0px" y="0px"
	 viewBox="0 0 5000 5000" style="enable-background:new 0 0 5000 5000;" xml:space="preserve">
<style type="text/css">
	.st0{fill:#232528;}
</style>
<path class="st0" d="M2729.5,2117.4h-153.1v153.1h153.1V2117.4z M2729.5,3495.3h306.2v-153.1h-306.2V3495.3z M3035.7,3189.1v153.1
	h306.2v-153.1H3035.7z M2576.3,1964.3h306.2v-153.1h-153.1V1658h153.1v-153.1h-459.3V1658h153.1V1964.3z M1965.1,2423.6v-306.2H1812
	v153.1h-153.1v-153.1h-153.1v459.3h153.1v-153.1H1965.1z M2729.5,2576.7h-306.2v153.1h459.3v-306.2h-153.1V2576.7z M2882.6,3036
	v-153h-153.1v-0.1h-306.2v-153h-153.1V3036h-153v153.1h306.1v-153h153.1v306h153.1v-306L2882.6,3036v153.1h153.1V3036H2882.6z
	 M1657.7,2729.8h-153.1v153.1h153.1V2729.8z M2118.2,2882.9v-153.1h152.1v-153.1h-152.1v-153.1h458.2v-153.1h-306.2v-153.1H2117
	v306.2h-151.9v153.1h-306.2v153.1h306.2v153.1H2118.2z M3341.9,3495.3H3495v-153.1h-153.1V3495.3z M3035.7,2882.9h306.2V3036H3495
	v-306.2h-459.3V2882.9z M2117,3495.3h459.3v-153.1H2117V3495.3z M3341.9,2270.5h-153.1v-153.1h-306.2v153.1h153.1v306.2h153.1
	v-153.1h153.1v153.1H3495v-459.3h-153.1V2270.5z M2423.2,1811.2h-153.1v-306.2H2117v459.3h153.1v153.1h153.1V1811.2z M1964.2,1811.2
	h-0.6V1658h0.6v-153.1h-459.6v459.3h459.6V1811.2z M1810.5,1811.2h-152.8V1658h152.8V1811.2z M1504.6,3495.3h459.6v-153.1h-0.6
	v-153.1h0.6V3036h-459.6V3495.3z M1657.7,3189.1h152.8v153.1h-152.8V3189.1z M3495.3,1658v-153.1h-459.6v459.3h459.6v-153.1h-0.6
	V1658H3495.3z M3341.6,1811.2h-152.8V1658h152.8V1811.2z"/>
</svg>
